<?xml version="1.0" encoding="utf-8"?>
<svg data-v-fde0c5aa="" viewBox="0 0 300 100" class="iconLeft" xmlns="http://www.w3.org/2000/svg">
  <defs data-v-fde0c5aa=""/>
  <defs data-v-fde0c5aa=""/>
  <g data-v-fde0c5aa="" id="26c6eb05-718b-4a01-8296-1c9ca5d5d454" fill="#1F1E1A" transform="matrix(2.4710778910841036,0,0,2.4710778910841036,100.61547631965077,125.61046090864144)">
    <path d="M 4.45 -35.981 C 2.6 -35.981 0.99 -34.931 0.99 -33.151 C 0.99 -31.371 2.24 -30.681 4.21 -30.211 C 5.64 -29.871 6.15 -29.401 6.15 -28.581 C 6.15 -27.841 5.45 -27.371 4.56 -27.371 C 3.58 -27.371 2.77 -27.911 2.56 -28.981 L 0.59 -28.981 C 0.77 -26.951 2.28 -25.921 4.59 -25.921 C 6.5 -25.921 8.16 -26.961 8.16 -28.781 C 8.16 -30.331 7.21 -31.311 5.08 -31.801 C 3.54 -32.171 3.02 -32.571 3.02 -33.391 C 3.02 -34.171 3.61 -34.531 4.38 -34.531 C 5.39 -34.531 5.94 -33.921 6.05 -32.941 L 8.02 -32.941 C 7.81 -34.661 6.76 -35.981 4.45 -35.981 Z M 16.34 -31.681 C 16.18 -32.981 15.27 -33.761 13.69 -33.761 C 12.98 -33.761 12.43 -33.621 11.9 -33.251 L 11.33 -32.361 L 11.33 -36.481 L 9.39 -36.481 L 9.39 -26.121 L 11.33 -26.121 L 11.33 -29.521 C 11.33 -31.591 12.07 -32.391 13.01 -32.411 C 13.94 -32.411 14.38 -31.871 14.43 -31.091 C 14.46 -30.711 14.46 -30.361 14.46 -30.051 L 14.46 -26.121 L 16.39 -26.121 L 16.39 -30.321 C 16.39 -30.921 16.38 -31.301 16.34 -31.681 Z M 19.05 -36.341 C 18.42 -36.341 17.99 -35.921 17.99 -35.321 C 17.99 -34.701 18.42 -34.301 19.05 -34.301 C 19.68 -34.301 20.12 -34.701 20.12 -35.321 C 20.12 -35.921 19.68 -36.341 19.05 -36.341 Z M 20.02 -26.121 L 20.02 -33.571 L 18.09 -33.571 L 18.09 -26.121 L 20.02 -26.121 Z M 28.76 -31.681 C 28.6 -32.981 27.69 -33.761 26.11 -33.761 C 25.4 -33.761 24.85 -33.621 24.32 -33.251 L 23.74 -32.361 L 23.74 -33.571 L 21.81 -33.571 L 21.81 -26.121 L 23.74 -26.121 L 23.74 -29.521 C 23.74 -31.591 24.49 -32.411 25.42 -32.411 C 26.36 -32.411 26.8 -31.871 26.85 -31.091 C 26.88 -30.711 26.88 -30.361 26.88 -30.051 L 26.88 -26.121 L 28.81 -26.121 L 28.81 -30.321 C 28.81 -30.921 28.8 -31.301 28.76 -31.681 Z M 37.56 -33.571 L 35.45 -33.571 L 33.63 -27.591 L 31.78 -33.571 L 29.62 -33.571 L 32.66 -25.771 L 32.56 -25.531 C 32.26 -24.791 31.82 -24.541 31.16 -24.541 C 30.97 -24.541 30.79 -24.541 30.59 -24.571 L 30.59 -23.241 C 30.87 -23.191 31.11 -23.181 31.46 -23.181 C 32.97 -23.181 33.78 -23.821 34.57 -25.841 L 37.56 -33.571 Z M 44.7 -35.981 C 42.85 -35.981 41.24 -34.931 41.24 -33.151 C 41.24 -31.371 42.49 -30.681 44.46 -30.211 C 45.89 -29.871 46.4 -29.401 46.4 -28.581 C 46.4 -27.841 45.7 -27.371 44.81 -27.371 C 43.83 -27.371 43.02 -27.911 42.81 -28.981 L 40.84 -28.981 C 41.02 -26.951 42.53 -25.921 44.84 -25.921 C 46.75 -25.921 48.41 -26.961 48.41 -28.781 C 48.41 -30.331 47.46 -31.311 45.33 -31.801 C 43.79 -32.171 43.27 -32.571 43.27 -33.391 C 43.27 -34.171 43.86 -34.531 44.63 -34.531 C 45.64 -34.531 46.19 -33.921 46.3 -32.941 L 48.27 -32.941 C 48.06 -34.661 47.01 -35.981 44.7 -35.981 Z M 50.61 -36.341 C 49.98 -36.341 49.55 -35.921 49.55 -35.321 C 49.55 -34.701 49.98 -34.301 50.61 -34.301 C 51.24 -34.301 51.67 -34.701 51.67 -35.321 C 51.67 -35.921 51.24 -36.341 50.61 -36.341 Z M 51.58 -26.121 L 51.58 -33.571 L 49.64 -33.571 L 49.64 -26.121 L 51.58 -26.121 Z M 64.43 -31.921 C 64.26 -32.941 63.45 -33.761 62.03 -33.761 C 61.36 -33.761 60.86 -33.621 60.44 -33.331 L 59.71 -32.351 C 59.42 -33.161 58.65 -33.761 57.43 -33.761 C 56.76 -33.761 56.27 -33.621 55.85 -33.331 L 55.3 -32.431 L 55.3 -33.571 L 53.37 -33.571 L 53.37 -26.121 L 55.3 -26.121 L 55.3 -29.941 C 55.3 -31.661 55.78 -32.411 56.64 -32.411 C 57.39 -32.411 57.82 -31.991 57.92 -31.221 C 57.96 -30.841 57.97 -30.431 57.97 -30.001 L 57.97 -26.121 L 59.89 -26.121 L 59.89 -29.941 C 59.89 -31.661 60.38 -32.411 61.25 -32.411 C 61.99 -32.411 62.41 -31.991 62.51 -31.221 C 62.55 -30.841 62.57 -30.431 62.57 -30.001 L 62.57 -26.121 L 64.5 -26.121 L 64.5 -30.561 C 64.5 -31.161 64.48 -31.541 64.43 -31.921 Z"/>
  </g>
  <defs data-v-fde0c5aa=""/>
  <g data-v-fde0c5aa="" id="5bab726f-19e7-464c-9e1b-ab69bc711111" transform="matrix(0.112296, 0, 0, 0.112296, 40, 26.18038)" stroke="#1F1E1A" fill="#1F1E1A" stroke-width="4px">
    <defs>
      <style>.fil0 { fill: rgb(255, 215, 0); }</style>
    </defs>
    <path class="fil0" d="M 147 135.095 C 191 264.095 166 238.095 295 282.095 C 166 326.095 191 301.095 147 430.095 C 103 301.095 128 326.095 0 282.095 C 128 238.095 103 264.095 147 135.095 Z M 339 65.095 C 368 150.095 352 134.095 437 163.095 C 352 192.095 368 175.095 339 260.095 C 310 175.095 327 192.095 242 163.095 C 327 134.095 310 150.095 339 65.095 Z M 213 -8.905 C 232 46.095 221 35.095 276 54.095 C 221 73.095 232 62.095 213 117.095 C 194 62.095 205 73.095 150 54.095 C 205 35.095 194 46.095 213 -8.905 Z"/>
  </g>
</svg>