<?xml version="1.0" standalone="no"?>
<!DOCTYPE svg PUBLIC "-//W3C//DTD SVG 20010904//EN"
 "http://www.w3.org/TR/2001/REC-SVG-20010904/DTD/svg10.dtd">
<svg version="1.0" xmlns="http://www.w3.org/2000/svg"
 width="70.000000pt" height="70.000000pt" viewBox="0 0 70.000000 70.000000"
 preserveAspectRatio="xMidYMid meet">
<metadata>
Created by potrace 1.14, written by Peter Selinger 2001-2017
</metadata>
<g transform="translate(0.000000,70.000000) scale(0.100000,-0.100000)"
fill="#000000" stroke="none">
<path d="M331 623 c4 -23 -4 -35 -33 -53 l-31 -19 26 -6 c22 -6 38 -24 41 -47
3 -20 16 -17 22 7 4 17 18 32 38 40 l31 13 -25 10 c-27 10 -58 41 -52 51 2 3
-1 7 -8 9 -6 2 -10 0 -9 -5z"/>
<path d="M483 519 c-3 -35 -30 -67 -68 -79 -35 -12 -39 -30 -6 -30 23 0 73
-39 66 -50 -3 -5 -1 -11 5 -15 5 -3 10 -16 10 -28 0 -17 2 -19 9 -7 6 8 8 17
7 20 -10 16 34 64 72 79 l44 17 -43 14 c-35 12 -45 22 -61 57 -21 47 -33 55
-35 22z"/>
<path d="M259 455 c-2 -6 -3 -9 -14 -50 -14 -52 -44 -81 -101 -101 -53 -18
-69 -33 -39 -35 8 -1 18 -2 23 -4 51 -14 62 -19 62 -27 0 -5 4 -7 9 -4 9 6 31
-35 51 -96 6 -21 13 -38 14 -38 2 0 11 24 20 54 19 61 35 86 56 90 17 3 43 12
80 28 24 10 24 11 -20 26 -73 24 -97 46 -115 107 -14 49 -22 65 -26 50z"/>
</g>
</svg>
